<?xml version="1.0" standalone="no"?>
<!DOCTYPE svg PUBLIC "-//W3C//DTD SVG 20010904//EN"
 "http://www.w3.org/TR/2001/REC-SVG-20010904/DTD/svg10.dtd">
<svg version="1.0" xmlns="http://www.w3.org/2000/svg"
 width="126.000000pt" height="105.000000pt" viewBox="0 0 126.000000 105.000000"
 preserveAspectRatio="xMidYMid meet">
<metadata>
Created by potrace 1.16, written by Peter Selinger 2001-2019
</metadata>
<g transform="translate(0.000000,105.000000) scale(0.100000,-0.100000)"
fill="#000000" stroke="none">
<path d="M379 1034 c-95 -17 -172 -45 -233 -85 -39 -26 -46 -36 -46 -63 0 -34
-14 -59 -67 -119 -45 -51 -46 -110 -1 -210 36 -81 39 -127 24 -323 -8 -106 -8
-114 13 -147 14 -22 41 -45 73 -61 73 -36 171 -35 354 4 126 26 155 37 299
109 216 107 274 151 315 236 18 37 53 91 80 120 57 62 74 109 65 167 -6 34
-21 56 -70 108 -41 42 -73 88 -92 130 -19 42 -46 80 -76 108 l-47 42 -257 -1
c-172 0 -283 -5 -334 -15z m613 -56 c28 -22 91 -121 126 -200 2 -5 -14 -9 -35
-9 -37 -2 -37 -2 9 -8 26 -4 57 -16 69 -26 13 -12 19 -14 14 -5 -8 13 -7 13 9
1 39 -32 57 -105 38 -153 -4 -9 -28 -39 -54 -66 -26 -27 -58 -73 -71 -103 -16
-36 -41 -70 -73 -97 -60 -52 -361 -202 -424 -212 -25 -4 -81 -17 -125 -29
-169 -45 -304 -37 -372 22 l-36 32 9 115 c16 210 12 259 -24 323 -41 73 -42
120 -4 173 16 21 36 45 45 52 8 7 18 31 22 52 13 75 114 134 230 133 42 0 62
2 50 7 -13 5 12 10 70 14 50 4 95 9 100 11 6 2 96 3 201 2 190 -2 191 -2 226
-29z"/>
<path d="M671 836 c-78 -26 -111 -75 -73 -109 15 -14 23 -13 92 10 68 23 80
25 130 14 63 -13 79 -4 62 33 -23 52 -130 78 -211 52z"/>
<path d="M275 798 c-55 -31 -40 -45 59 -58 90 -11 96 -14 96 -43 0 -23 -51
-73 -121 -117 -19 -12 -25 -19 -14 -14 42 16 89 5 113 -26 25 -32 50 -38 70
-18 19 19 14 29 -13 22 -33 -8 -79 39 -65 66 6 10 19 22 30 25 15 5 20 15 20
44 0 31 5 40 26 49 27 13 24 35 -4 30 -10 -1 -29 6 -43 15 -52 35 -118 45
-154 25z"/>
<path d="M990 661 c-19 -24 -190 -93 -312 -127 -64 -17 -129 -27 -208 -31
-101 -4 -122 -2 -171 16 -73 28 -99 53 -99 96 0 48 -11 44 -35 -13 -15 -35
-20 -69 -20 -137 0 -161 37 -199 215 -216 122 -13 283 1 363 31 88 33 171 92
218 157 24 32 52 68 63 81 12 13 21 29 22 35 0 7 2 18 2 25 1 7 16 12 35 12
l32 1 -37 30 c-21 17 -38 37 -38 45 0 19 -12 17 -30 -5z"/>
</g>
</svg>
